<?xml version="1.0" encoding="UTF-8" standalone="no"?>
<!-- Created with Inkscape (http://www.inkscape.org/) -->

<svg
   width="163.33611mm"
   height="163.40218mm"
   viewBox="0 0 163.3361 163.40217"
   version="1.1"
   id="svg56491"
   inkscape:version="1.1 (c4e8f9ed74, 2021-05-24)"
   sodipodi:docname="thingiverse.svg"
   xmlns:inkscape="http://www.inkscape.org/namespaces/inkscape"
   xmlns:sodipodi="http://sodipodi.sourceforge.net/DTD/sodipodi-0.dtd"
   xmlns="http://www.w3.org/2000/svg"
   xmlns:svg="http://www.w3.org/2000/svg">
  <sodipodi:namedview
     id="namedview56493"
     pagecolor="#505050"
     bordercolor="#eeeeee"
     borderopacity="1"
     inkscape:pageshadow="0"
     inkscape:pageopacity="0"
     inkscape:pagecheckerboard="0"
     inkscape:document-units="mm"
     showgrid="false"
     fit-margin-top="0"
     fit-margin-left="0"
     fit-margin-right="0"
     fit-margin-bottom="0"
     inkscape:zoom="0.62270623"
     inkscape:cx="719.44037"
     inkscape:cy="369.35555"
     inkscape:window-width="1162"
     inkscape:window-height="1546"
     inkscape:window-x="3142"
     inkscape:window-y="38"
     inkscape:window-maximized="0"
     inkscape:current-layer="layer1" />
  <defs
     id="defs56488" />
  <g
     inkscape:label="Layer 1"
     inkscape:groupmode="layer"
     id="layer1"
     transform="translate(-47.320021,-50.91439)">
    <path
       style="fill:#000000;stroke-width:0.352778"
       id="path57000"
       d="" />
    <path
       style="fill:#000000;stroke-width:0.352778"
       id="path56644"
       d="" />
    <path
       style="fill:#000000;stroke-width:0.352778"
       id="path56601"
       d="" />
    <path
       style="fill:#000000;stroke-width:0.352778"
       id="path56581"
       d="" />
    <path
       style="fill:#000000;stroke-width:0.352778"
       d="m 55.963077,214.09871 c -3.181893,-0.97757 -6.049247,-3.39199 -7.660869,-6.45075 l -0.982187,-1.86413 V 132.58244 59.381057 l 0.982187,-1.864131 c 1.249805,-2.372054 3.248295,-4.370544 5.620349,-5.620349 l 1.864131,-0.982187 h 73.201392 73.20138 l 1.86413,0.982187 c 2.37206,1.249805 4.37055,3.248295 5.62035,5.620349 l 0.98219,1.864131 v 73.201383 73.20139 l -0.98219,1.86413 c -1.2498,2.37206 -3.24829,4.37055 -5.62035,5.62035 l -1.86413,0.98219 -72.67222,0.0596 c -39.969719,0.0328 -73.069094,-0.0624 -73.554163,-0.21137 z m 85.725003,-26.23258 c 4.91201,-1.18387 8.18936,-2.37974 12.87638,-4.69845 5.31742,-2.63056 9.86475,-5.94581 14.46389,-10.54496 7.90828,-7.90827 12.94573,-17.09138 15.40786,-28.08799 0.72813,-3.25205 0.81992,-4.57035 0.81992,-11.7759 0,-7.20554 -0.0918,-8.52385 -0.81992,-11.7759 -2.46213,-10.99661 -7.49958,-20.17971 -15.40786,-28.087989 -7.90827,-7.908268 -17.09137,-12.945723 -28.08799,-15.407852 -3.25205,-0.728132 -4.57035,-0.819921 -11.7759,-0.819921 -7.20554,0 -8.52384,0.09179 -11.77589,0.819921 -10.99662,2.462129 -20.179721,7.499584 -28.087994,15.407852 -7.908272,7.908279 -12.945727,17.091379 -15.407856,28.087989 -0.728132,3.25205 -0.819921,4.57036 -0.819921,11.7759 0,7.20555 0.09179,8.52385 0.819921,11.7759 2.414056,10.7819 7.422238,20.01946 15.055079,27.76899 7.069409,7.1775 15.310881,12.10394 24.694441,14.76142 6.01632,1.70386 8.22075,1.94514 16.58056,1.81477 6.83329,-0.10656 8.20393,-0.22775 11.46528,-1.01378 z m -17.99167,-6.82068 c -11.17981,-1.41921 -20.82881,-6.1387 -28.754335,-14.06423 -7.04475,-7.04474 -11.292596,-14.90491 -13.442466,-24.87378 -0.912873,-4.23295 -0.912873,-14.46426 0,-18.69722 2.14987,-9.96887 6.397716,-17.82903 13.442466,-24.873779 7.044745,-7.04475 14.904915,-11.29259 24.873775,-13.442463 4.23296,-0.912873 14.46427,-0.912873 18.69723,0 9.96886,2.149873 17.82903,6.397713 24.87377,13.442463 7.04475,7.044749 11.2926,14.904909 13.44247,24.873779 0.91287,4.23296 0.91287,14.46427 0,18.69722 -2.14987,9.96887 -6.39772,17.82904 -13.44247,24.87378 -6.91151,6.91152 -14.46253,11.0633 -24.12251,13.26329 -2.99135,0.68126 -12.61174,1.17621 -15.56793,0.80094 z m 12.34722,-35.58662 v -24.16527 h 10.4144 10.41441 l -0.0957,-6.96737 -0.0957,-6.96736 h -27.51667 -27.51666 l -0.0956,6.96736 -0.0957,6.96737 h 10.41441 10.4144 v 24.16527 24.16528 h 6.87916 6.87917 z"
       id="path57290" />
  </g>
</svg>
