<?xml version="1.0" encoding="UTF-8" standalone="no"?>
<!-- Created with Inkscape (http://www.inkscape.org/) -->

<svg
   width="112.21713mm"
   height="112.32993mm"
   viewBox="0 0 112.21713 112.32993"
   version="1.1"
   id="svg56491"
   inkscape:version="1.1 (c4e8f9ed74, 2021-05-24)"
   sodipodi:docname="thingiverse.svg"
   inkscape:export-filename="/home/agoramachina/workspace/agoramachina.github.io/html5up-read-only/images/thingiverse.png"
   inkscape:export-xdpi="41.1954"
   inkscape:export-ydpi="41.1954"
   xmlns:inkscape="http://www.inkscape.org/namespaces/inkscape"
   xmlns:sodipodi="http://sodipodi.sourceforge.net/DTD/sodipodi-0.dtd"
   xmlns="http://www.w3.org/2000/svg"
   xmlns:svg="http://www.w3.org/2000/svg">
  <sodipodi:namedview
     id="namedview56493"
     pagecolor="#505050"
     bordercolor="#eeeeee"
     borderopacity="1"
     inkscape:pageshadow="0"
     inkscape:pageopacity="0"
     inkscape:pagecheckerboard="0"
     inkscape:document-units="mm"
     showgrid="false"
     fit-margin-top="0"
     fit-margin-left="0"
     fit-margin-right="0"
     fit-margin-bottom="0"
     inkscape:zoom="0.39258298"
     inkscape:cx="554.023"
     inkscape:cy="183.40072"
     inkscape:window-width="1023"
     inkscape:window-height="1546"
     inkscape:window-x="3281"
     inkscape:window-y="38"
     inkscape:window-maximized="0"
     inkscape:current-layer="layer15" />
  <defs
     id="defs56488" />
  <g
     inkscape:groupmode="layer"
     id="layer15"
     inkscape:label="round"
     transform="translate(-15.505244,-16.309262)">
    <path
       style="fill:#ffffff;stroke-width:0.352778"
       d="M 65.824245,128.49738 C 49.732316,126.50122 35.837728,118.51832 26.365825,105.82719 21.683163,99.553028 17.974132,91.130148 16.363492,83.112778 c -1.144331,-5.6962 -1.144331,-15.63116 0,-21.32736 4.539571,-22.59688 22.021026,-40.078337 44.617904,-44.617908 5.6962,-1.144331 15.631164,-1.144331 21.327365,0 22.596879,4.539571 40.078329,22.021028 44.617909,44.617908 0.65887,3.27972 0.79571,5.11361 0.79571,10.66368 0,5.55006 -0.13684,7.38395 -0.79571,10.66368 -4.52331,22.515892 -22.08469,40.132022 -44.428213,44.566702 -3.688793,0.73214 -13.489906,1.2129 -16.674212,0.8179 z m 14.235159,-8.07124 c 11.646331,-2.03095 22.584286,-8.53136 29.678946,-17.63815 2.70256,-3.469042 3.67067,-5.004422 5.63027,-8.929412 1.85095,-3.70736 3.52199,-8.82291 4.31737,-13.21673 0.78036,-4.31084 0.78036,-12.07467 0,-16.38551 -2.22181,-12.27369 -8.81666,-23.19498 -18.40758,-30.48357 -6.196052,-4.708673 -13.610848,-7.947227 -21.440575,-9.364583 -4.310843,-0.780359 -12.074671,-0.780359 -16.385513,0 -12.0103,2.174132 -22.762775,8.539923 -29.90052,17.702023 -2.702558,3.46903 -3.670666,5.00442 -5.630267,8.92941 -3.285227,6.58015 -4.90639,13.65424 -4.90639,21.40948 0,12.78469 4.646923,24.41355 13.515491,33.822312 2.02319,2.14642 6.469073,5.76418 9.118848,7.4203 6.24686,3.9043 14.076749,6.52217 22.115038,7.394 2.394127,0.25967 9.080515,-0.099 12.294882,-0.65957 z M 64.765911,84.796318 V 60.631038 H 54.535355 44.304798 v -6.70278 -6.70278 h 27.34028 27.34028 v 6.70278 6.70278 H 88.754802 78.524245 v 24.16528 24.165282 h -6.879167 -6.879167 z"
       id="path57931" />
  </g>
</svg>
